#!OML:ASF F:\VICON\USERDATA\INSTALL\SteveWalk\SteveWalk.ASF
:FULLY-SPECIFIED
:DEGREES
61
root -0.0370391 16.3854 -31.4868 16.1683 1.67019 0.308987
lowerback -14.2204 -1.676 -5.30026
upperback -4.96945 -1.48575 -0.04724
thorax 2.84215 -0.712106 2.69821
lowerneck -2.35768 -1.43965 -0.881596
upperneck 11.2479 -2.21015 3.03464
head 4.15331 -0.995501 1.07387
rclavicle 5.41688e-015 -1.03368e-014
rhumerus -56.6936 -30.0682 -56.9056
rradius 14.318
rwrist 26.7177
rhand -11.3313 -33.7956
rfingers 7.12502
rthumb 14.7013 -63.2544
lclavicle 5.41688e-015 -1.03368e-014
lhumerus -28.9962 6.56859 80.7934
lradius 24.676
lwrist -10.8137
lhand -17.1202 -16.6125
lfingers 7.12502
lthumb 9.11934 13.1704
rfemur -47.4179 -5.96027 23.1394
rtibia 56.8516
rfoot -13.9305 -2.167
rtoes -4.51801
lfemur -22.4927 3.13119 -24.9873
ltibia 34.0473
lfoot -24.8283 -4.48757
ltoes -4.97376
62
root -0.035418 16.3849 -31.2715 16.1644 2.06804 0.289425
lowerback -14.239 -1.72805 -5.23558
upperback -4.89398 -1.55724 -0.0956374
thorax 2.93542 -0.751431 2.59752
lowerneck -2.28313 -1.50892 -0.872761
upperneck 11.1077 -2.32687 3.28927
head 4.09621 -1.04338 1.15245
rclavicle 1.75117e-014 2.10712e-014
rhumerus -59.1193 -31.8578 -53.3361
rradius 13.7416
rwrist 30.1578
rhand -10.6742 -34.3126
rfingers 7.12502
rthumb 15.3343 -63.724
lclavicle 1.75117e-014 2.10712e-014
lhumerus -28.3345 4.14419 81.576
lradius 26.5185
lwrist -8.35298
lhand -17.4427 -15.9475
lfingers 7.12502
lthumb 8.80817 13.8487
rfemur -47.8017 -5.88012 23.4455
rtibia 53.8895
rfoot -13.7404 -3.68663
rtoes -8.69886
lfemur -21.1945 3.34292 -24.8332
ltibia 33.2063
lfoot -25.1003 -4.76221
ltoes -5.71303
63
root -0.0284203 16.3911 -31.0515 16.1172 2.47482 0.109937
lowerback -14.2179 -1.7614 -4.97143
upperback -4.81873 -1.6372 -0.0674436
thorax 3.00541 -0.794698 2.46402
lowerneck -2.32981 -1.60834 -0.792392
upperneck 11.0884 -2.47094 3.34269
head 4.1019 -1.10856 1.14957
rclavicle -3.23802e-015 1.19271e-014
rhumerus -62.0858 -33.8263 -48.7487
rradius 12.9925
rwrist 34.5551
rhand -10.396 -34.6438
rfingers 7.12502
rthumb 15.6022 -64.0346
lclavicle -3.23802e-015 1.19271e-014
lhumerus -27.5286 2.18133 82.1368
lradius 28.0365
lwrist -6.14503
lhand -17.7316 -16.1529
lfingers 7.12502
lthumb 8.52936 13.6548
rfemur -48.0062 -5.91054 23.9107
rtibia 50.7279
rfoot -13.4117 -4.38605
rtoes -10.3589
lfemur -19.8034 3.40582 -24.4742
ltibia 32.2662
lfoot -25.2454 -5.26455
ltoes -5.28555
64
root -0.0255056 16.3917 -30.8324 16.0731 2.8465 0.0794103
lowerback -14.2021 -1.8479 -4.96015
upperback -4.68235 -1.75098 -0.0344347
thorax 3.15052 -0.856459 2.47133
lowerneck -2.50207 -1.69769 -0.76906
upperneck 11.0508 -2.59924 3.41026
head 4.12679 -1.16666 1.16156
rclavicle -1.2169e-014 -1.19271e-015
rhumerus -65.0552 -35.4306 -44.1806
rradius 12.3521
rwrist 38.6205
rhand -10.7393 -34.3602
rfingers 7.12502
rthumb 15.2716 -63.7764
lclavicle -1.2169e-014 -1.19271e-015
lhumerus -26.6976 0.3986 82.5751
lradius 29.6466
lwrist -4.15475
lhand -17.9278 -16.6159
lfingers 7.12502
lthumb 8.34006 13.1995
rfemur -48.1729 -6.16101 24.3074
rtibia 47.4603
rfoot -12.957 -4.71085
rtoes -14.6301
lfemur -18.3703 3.46334 -24.2552
ltibia 31.2509
lfoot -25.3093 -5.77735
ltoes -5.22794
65
root -0.0320272 16.3921 -30.618 16.0229 3.3773 0.193062
lowerback -14.2006 -1.99957 -5.24224
upperback -4.54205 -1.90788 -0.0235557
thorax 3.31799 -0.939722 2.61261
lowerneck -2.33677 -1.80287 -0.74033
upperneck 10.8388 -2.74521 3.50624
head 4.02376 -1.23715 1.18218
rclavicle -1.22703e-014 -3.97569e-015
rhumerus -67.9572 -36.6666 -40.0073
rradius 11.9999
rwrist 41.6185
rhand -10.9142 -34.0581
rfingers 7.12502
rthumb 15.1032 -63.4871
lclavicle -1.22703e-014 -3.97569e-015
lhumerus -26.046 -1.18779 82.9208
lradius 31.3734
lwrist -2.47773
lhand -18.042 -16.8131
lfingers 7.12502
lthumb 8.2298 13.0067
rfemur -48.2672 -6.35221 24.5057
rtibia 44.1185
rfoot -12.391 -4.86922
rtoes -17.9482
lfemur -16.985 3.65224 -24.1004
ltibia 30.2139
lfoot -25.4432 -6.56059
ltoes -5.11678
66
root -0.0358169 16.3919 -30.4034 15.9565 4.116 0.112175
lowerback -13.9508 -2.18396 -5.28873
upperback -4.53935 -2.16464 0.0925775
thorax 3.21356 -1.0641 2.72277
lowerneck -2.13833 -1.89644 -0.857566
upperneck 10.6887 -2.87344 3.65188
head 3.94073 -1.30265 1.24688
rclavicle -1.78906e-015 -5.1684e-015
rhumerus -70.7369 -37.4156 -35.9969
rradius 11.709
rwrist 44.0529
rhand -10.176 -34.4683
rfingers 7.12502
rthumb 15.8142 -63.8424
lclavicle -1.78906e-015 -5.1684e-015
lhumerus -25.6047 -2.55346 83.2299
lradius 33.0949
lwrist -0.995982
lhand -18.2938 -16.8806
lfingers 7.12502
lthumb 7.98677 12.9485
rfemur -48.2178 -6.66553 24.9097
rtibia 40.7138
rfoot -12.1543 -4.65602
rtoes -17.1473
lfemur -15.6579 3.90795 -23.6704
ltibia 29.2461
lfoot -25.5089 -7.78621
ltoes -3.8321
67
root -0.0331973 16.3748 -30.1859 15.8721 4.75692 0.00629731
lowerback -13.834 -2.34199 -5.15062
upperback -4.43983 -2.39927 0.167443
thorax 3.27415 -1.18352 2.68478
lowerneck -2.18309 -1.97257 -0.738302
upperneck 10.552 -2.98084 3.6759
head 3.90191 -1.35101 1.22836
rclavicle 5.07398e-014 1.86858e-014
rhumerus -73.568 -38.0908 -31.835
rradius 11.3796
rwrist 47.0413
rhand -9.72825 -34.7639
rfingers 7.12502
rthumb 16.2453 -64.1033
lclavicle 5.07398e-014 1.86858e-014
lhumerus -24.9371 -3.69624 83.3711
lradius 34.5667
lwrist 0.281666
lhand -18.791 -16.5063
lfingers 7.12502
lthumb 7.5069 13.3405
rfemur -48.0787 -7.15983 25.3999
rtibia 37.3186
rfoot -12.1315 -4.18913
rtoes -16.9516
lfemur -14.3035 4.20635 -23.2656
ltibia 28.3096
lfoot -25.6541 -8.62714
ltoes -4.40368
68
root -0.0316472 16.3562 -29.9687 15.8374 5.40278 -0.0876285
lowerback -13.8865 -2.49004 -5.04001
upperback -4.29451 -2.60439 0.215772
thorax 3.47123 -1.29175 2.63304
lowerneck -2.09152 -1.99992 -0.645237
upperneck 10.1837 -3.02422 3.82687
head 3.75668 -1.36792 1.25957
rclavicle 1.2424e-015 1.19271e-015
rhumerus -76.4744 -38.6248 -27.7157
rradius 11.087
rwrist 50.0885
rhand -9.89737 -34.6744
rfingers 7.12502
rthumb 16.0825 -64.027
lclavicle 1.2424e-015 1.19271e-015
lhumerus -24.2806 -4.89578 83.4828
lradius 36.1561
lwrist 1.5686
lhand -19.2289 -16.8052
lfingers 7.12502
lthumb 7.08418 13.0562
rfemur -47.9199 -7.52129 25.7984
rtibia 33.8812
rfoot -12.0534 -3.70762
rtoes -19.0753
lfemur -13.0406 4.33332 -22.8343
ltibia 27.523
lfoot -25.8521 -9.44471
ltoes -5.07331
69
root -0.0301084 16.3367 -29.7554 15.9038 5.88063 0.0932527
lowerback -13.8544 -2.58448 -5.27214
upperback -4.26792 -2.69755 0.207624
thorax 3.49869 -1.33892 2.73933
lowerneck -1.93305 -2.10575 -0.701306
upperneck 10.0063 -3.17248 3.99971
head 3.67344 -1.44039 1.3216
rclavicle 1.60953e-014 -3.18055e-015
rhumerus -78.4142 -38.4906 -25.3622
rradius 11.0441
rwrist 51.2485
rhand -10.0607 -34.2009
rfingers 7.12502
rthumb 15.9252 -63.5662
lclavicle 1.60953e-014 -3.18055e-015
lhumerus -23.6356 -6.3356 83.6785
lradius 37.6307
lwrist 3.29193
lhand -19.3039 -17.939
lfingers 7.12502
lthumb 7.01181 11.9249
rfemur -47.9093 -7.67491 25.7255
rtibia 30.5788
rfoot -12.0845 -2.60718
rtoes -18.4343
lfemur -11.8408 4.29901 -22.756
ltibia 26.6699
lfoot -26.0656 -9.84234
ltoes -6.5083
70
root -0.0198552 16.3134 -29.552 16.1131 6.1568 -0.090013
lowerback -13.7588 -2.54632 -4.94682
upperback -4.32552 -2.70004 0.245523
thorax 3.37526 -1.33616 2.60023
lowerneck -2.114 -2.2211 -0.631992
upperneck 9.98528 -3.33271 4.01027
head 3.70432 -1.51477 1.3051
rclavicle -3.71044e-014 -1.43125e-014
rhumerus -78.8188 -37.8681 -25.4081
rradius 11.1367
rwrist 50.4226
rhand -10.1289 -34.0815
rfingers 7.12502
rthumb 15.8595 -63.452
lclavicle -3.71044e-014 -1.43125e-014
lhumerus -23.0015 -7.64838 83.7284
lradius 39.0809
lwrist 4.75424
lhand -19.9651 -18.1031
lfingers 7.12502
lthumb 6.37353 11.781
rfemur -48.1839 -7.88873 26.2247
rtibia 27.5131
rfoot -12.1578 -1.06853
rtoes -17.5896
lfemur -10.7445 4.09684 -22.3963
ltibia 25.6166
lfoot -25.9828 -10.0709
ltoes -6.82858
71
root -0.0387724 16.3054 -29.3234 16.2277 7.19655 -0.0607058
lowerback -13.8608 -2.89767 -5.18869
upperback -4.21236 -3.12761 0.387833
thorax 3.60433 -1.55449 2.8042
lowerneck -2.41826 -2.21766 -0.530951
upperneck 9.87409 -3.32588 3.95104
head 3.71994 -1.50782 1.26499
rclavicle -1.31695e-014 7.95139e-016
rhumerus -80.211 -37.7799 -23.5319
rradius 11.0083
rwrist 51.525
rhand -10.181 -33.7817
rfingers 7.12502
rthumb 15.8093 -63.1562
lclavicle -1.31695e-014 7.95139e-016
lhumerus -22.3272 -8.49065 83.6517
lradius 40.4527
lwrist 5.51348
lhand -20.9294 -17.9031
lfingers 7.12502
lthumb 5.44256 12.007
rfemur -48.0292 -8.03798 26.2875
rtibia 24.6541
rfoot -12.2352 -0.75365
rtoes -17.5689
lfemur -9.40719 4.23302 -21.8072
ltibia 24.4274
lfoot -25.9507 -11.5604
ltoes -6.6266
